<?xml version='1.0' encoding='UTF-8' standalone='no'?>
<svg xmlns:cc="http://creativecommons.org/ns#" height="210mm" xmlns:xlink="http://www.w3.org/1999/xlink" viewBox="0 0 2970 2100" width="297mm" xmlns:svg="http://www.w3.org/2000/svg" xmlns:sodipodi="http://sodipodi.sourceforge.net/DTD/sodipodi-0.dtd" xmlns:dc="http://purl.org/dc/elements/1.1/" baseProfile="tiny" xmlns:freecad="http://www.freecad.org/wiki/index.php?title=Svg_Namespace" xmlns:rdf="http://www.w3.org/1999/02/22-rdf-syntax-ns#" xmlns="http://www.w3.org/2000/svg" version="1.2" xmlns:inkscape="http://www.inkscape.org/namespaces/inkscape">
 <title>FreeCAD SVG Export</title>
 <desc>Drawing page: Page exported from FreeCAD document: DIbujo_cajachiqui</desc>
 <defs/>
 <g id="Page" inkscape:label="TechDraw" inkscape:groupmode="layer">
  <g id="A4_Landscape_ISO7200_Pep.svg" transform="scale(10.000000, 10.000000)" style="stroke: none;">
   <g id="drawing-border" style="fill:none;stroke:#000000;stroke-width:0.35;stroke-linecap:miter;stroke-miterlimit:4">
    <rect height="188" x="7" width="283" y="15"/>
   </g>
   <g id="titleblock-structure" style="fill:none;stroke:#000000;stroke-width:0.35;stroke-linecap:miter;stroke-miterlimit:4">
    <rect height="34" x="150" width="140" y="169"/>
    <path d="m 150,177 h 140"/>
    <!-- upper horizontal Separator Titleblock -->
    <path d="m 150,195 h 87"/>
    <!-- lower horizontal Separator Document-Type -->
    <path d="m 150,199 h 140"/>
    <!-- lower horizontal Separator Copyright -->
    <path d="m 195,169 v 8"/>
    <!-- Separator Author / Owner -->
    <path d="m 237,169 v 30"/>
    <!-- Separator Title / Liste RH -->
    <path d="m 267,169 v 8"/>
    <!-- Separator Scale / Sheet -->
    <path d="m 237,185 h 53"/>
    <!-- Separator Part / Drawing-Nr -->
    <path d="m 237,191 h 53"/>
    <!-- Separator DRW-Info / Revision -->
    <path d="m 267,191 v 8"/>
    <!-- Separator Date / Revision -->
   </g>
   <g id="titleblock-text-non-editable" style="font-size:3px;text-anchor:start;fill:#000000;font-family:tahoma" xml:space="preserve">
    <text x="151" y="172">Author:</text>
    <text x="151" y="176">Appr.:</text>
    <text x="196" y="172">Legal owner:</text>
    <text x="151" y="181">TITLE:</text>
    <text x="151" y="198">Document type:</text>
    <text x="268" y="172">Sheet:</text>
    <text x="268" y="176">Size:</text>
    <text x="238" y="172">Scale:</text>
    <text x="238" y="176">Toler.:</text>
    <text x="238" y="180">Part material:</text>
    <text x="238" y="184">Part number:</text>
    <text x="238" y="189">Drawing no.:</text>
    <text x="238" y="194">Date:</text>
    <text x="268" y="194">Revision:</text>
   </g>
   <g id="titleblock-text-editable" style="font-size:3px;text-anchor:start;fill:#000000;font-family:tahoma" xml:space="preserve">
    <text x="162" freecad:editable="AUTHOR_NAME" y="172">
     <tspan xml:space="preserve">AUTHOR NAME</tspan>
    </text>
    <text x="162" freecad:editable="APPROVER_NAME" y="176">
     <tspan xml:space="preserve">APPROVER NAME</tspan>
    </text>
    <text x="197" freecad:editable="OWNER_NAME" y="176">
     <tspan xml:space="preserve">OWNER NAME</tspan>
    </text>
    <text x="152" freecad:editable="TITLELINE-1" y="185">
     <tspan xml:space="preserve">FreeCAD</tspan>
    </text>
    <text x="152" freecad:editable="TITLELINE-2" y="189">
     <tspan xml:space="preserve"/>
    </text>
    <text x="152" freecad:editable="TITLELINE-3" y="193">
     <tspan xml:space="preserve"/>
    </text>
    <text x="174" freecad:editable="DOCUMENT_TYPE" y="198">Mechanical assembly drawing<tspan xml:space="preserve"/>
    </text>
    <text x="277" freecad:editable="SHEET" y="172">
     <tspan xml:space="preserve">99 of 99</tspan>
    </text>
    <text x="247" freecad:editable="SCALE" y="172">
     <tspan xml:space="preserve">M x:x</tspan>
    </text>
    <text x="247" freecad:editable="TOLERANCE" y="176">
     <tspan xml:space="preserve">+/- ?</tspan>
    </text>
    <text x="257" freecad:editable="PM" y="180">
     <tspan xml:space="preserve">PM</tspan>
    </text>
    <text x="257" freecad:editable="PN" y="184">
     <tspan xml:space="preserve">PN</tspan>
    </text>
    <text x="257" freecad:editable="DN" y="189">
     <tspan xml:space="preserve">DN</tspan>
    </text>
    <text x="239" freecad:editable="DATE" y="198">
     <tspan xml:space="preserve">YYYY-MM-DD</tspan>
    </text>
    <text x="269" freecad:editable="REVISION" y="198">
     <tspan xml:space="preserve">REV A</tspan>
    </text>
    <text x="277" freecad:editable="SIZE" y="176">
     <tspan xml:space="preserve">A4</tspan>
    </text>
    <text x="151" freecad:editable="RIGHTS" y="202">
     <tspan xml:space="preserve">(R) DO NOT DUPLICATE THIS DRAWING TO THIRD PARTIES WITHOUT OWNER'S PERMISSION !</tspan>
    </text>
   </g>
   <!-- Set display:none to hide FreeCAD Logo or remove this and next 4 lines from this code -->
   <g id="freecad-logo" transform="translate(138,192)" fill="none" style="display:inline" stroke="#000" stroke-width="0.35" fill-rule="evenodd">
    <path d="m0.1524 0.15254v8.8549h1.9744v-3.4652h1.396v-1.3661h-1.396v-1.4745h3.4391v-2.5441l-5.4135-0.005z"/>
    <path d="m7.7927 3.4504-0.50715-0.176-0.48387-1.2366-0.76115 0.04-0.34718 1.2787-0.4859 0.23269-1.2119-0.53015-0.51188 0.56882 0.65892 1.1485-0.18006 0.50567-1.2366 0.48387 0.044064 0.76263 1.2787 0.34718 0.23269 0.4859-0.53421 1.2104 0.56882 0.51188 1.1485-0.65891 0.50973 0.18155 0.4798 1.2351 0.7667-0.04258 0.34311-1.2802 0.4859-0.23269 1.2145 0.5357 0.51188-0.56882-0.65891-1.1485 0.17748-0.51122 1.2351-0.4798-0.03851-0.76521-1.2802-0.34311-0.23269-0.4859 0.53163-1.216-0.56881-0.51184zm-0.5715 1.2244 0.23576 0.13679 0.20426 0.18519 0.16353 0.22101 0.11763 0.24572 0.06916 0.26489 0.01146 0.27146-0.03921 0.27139-0.08948 0.25764-0.14234 0.23834-0.17964 0.20167-0.22101 0.16353-0.24572 0.11763-0.26489 0.06916-0.27295 0.01553-0.2719-0.04-0.2576-0.089-0.2383-0.143-0.2002-0.183-0.165-0.217-0.1177-0.246-0.0676-0.269-0.0156-0.273 0.039206-0.2714 0.089484-0.25764 0.14085-0.23427 0.18113-0.20574 0.22101-0.16352 0.24572-0.11763 0.26895-0.06768 0.27147-0.01146 0.27139 0.03921 0.25764 0.08948z"/>
   </g>
  </g>
  <g id="DrawingContent" fill="none" stroke="black" stroke-width="1" stroke-linecap="square" fill-rule="evenodd" stroke-linejoin="bevel">
   <g fill="none" transform="matrix(1,0,0,1,1485,1050)" stroke="#000000" stroke-width="1" font-weight="400" font-family="Ubuntu" stroke-linecap="square" stroke-opacity="1" font-style="normal" stroke-linejoin="bevel" font-size="35.2778">
    <rect height="0" x="0" width="0" y="0"/>
   </g>
   <g fill="#ffffff" fill-opacity="1" transform="matrix(1,0,0,1,1485,1050)" stroke="none" font-weight="400" font-family="Ubuntu" font-style="normal" font-size="35.2778">
    <path vector-effect="non-scaling-stroke" d="M-150,-250 L150,-250 L150,250 L-150,250 L-150,-250" fill-rule="evenodd"/>
   </g>
   <g fill="#ffffff" fill-opacity="1" transform="matrix(1,0,0,1,1485,1050)" stroke="none" font-weight="400" font-family="Ubuntu" font-style="normal" font-size="35.2778">
    <path vector-effect="non-scaling-stroke" d="M-148,245 L144,245 L144,-247 L-148,-247 L-148,245" fill-rule="evenodd"/>
   </g>
   <g fill="none" transform="matrix(1,0,0,1,1485,1050)" stroke="#000000" stroke-width="1" font-weight="400" font-family="Ubuntu" stroke-linecap="round" stroke-opacity="1" font-style="normal" stroke-linejoin="bevel" font-size="35.2778">
    <path vector-effect="non-scaling-stroke" d="M-150,-250 L150,-250" fill-rule="evenodd"/>
   </g>
   <g fill="none" transform="matrix(1,0,0,1,1485,1050)" stroke="#000000" stroke-width="1" font-weight="400" font-family="Ubuntu" stroke-linecap="round" stroke-opacity="1" font-style="normal" stroke-linejoin="bevel" font-size="35.2778">
    <path vector-effect="non-scaling-stroke" d="M-150,-250 L-150,250" fill-rule="evenodd"/>
   </g>
   <g fill="none" transform="matrix(1,0,0,1,1485,1050)" stroke="#000000" stroke-width="1" font-weight="400" font-family="Ubuntu" stroke-linecap="round" stroke-opacity="1" font-style="normal" stroke-linejoin="bevel" font-size="35.2778">
    <path vector-effect="non-scaling-stroke" d="M150,-250 L150,250" fill-rule="evenodd"/>
   </g>
   <g fill="none" transform="matrix(1,0,0,1,1485,1050)" stroke="#000000" stroke-width="1" font-weight="400" font-family="Ubuntu" stroke-linecap="round" stroke-opacity="1" font-style="normal" stroke-linejoin="bevel" font-size="35.2778">
    <path vector-effect="non-scaling-stroke" d="M-150,250 L150,250" fill-rule="evenodd"/>
   </g>
   <g fill="none" transform="matrix(1,0,0,1,1485,1050)" stroke="#000000" stroke-width="1" font-weight="400" font-family="Ubuntu" stroke-linecap="round" stroke-opacity="1" font-style="normal" stroke-linejoin="bevel" font-size="35.2778">
    <path vector-effect="non-scaling-stroke" d="M-148,245 L-148,-247" fill-rule="evenodd"/>
   </g>
   <g fill="none" transform="matrix(1,0,0,1,1485,1050)" stroke="#000000" stroke-width="1" font-weight="400" font-family="Ubuntu" stroke-linecap="round" stroke-opacity="1" font-style="normal" stroke-linejoin="bevel" font-size="35.2778">
    <path vector-effect="non-scaling-stroke" d="M-148,245 L144,245" fill-rule="evenodd"/>
   </g>
   <g fill="none" transform="matrix(1,0,0,1,1485,1050)" stroke="#000000" stroke-width="1" font-weight="400" font-family="Ubuntu" stroke-linecap="round" stroke-opacity="1" font-style="normal" stroke-linejoin="bevel" font-size="35.2778">
    <path vector-effect="non-scaling-stroke" d="M144,245 L144,-247" fill-rule="evenodd"/>
   </g>
   <g fill="none" transform="matrix(1,0,0,1,1485,1050)" stroke="#000000" stroke-width="1" font-weight="400" font-family="Ubuntu" stroke-linecap="round" stroke-opacity="1" font-style="normal" stroke-linejoin="bevel" font-size="35.2778">
    <path vector-effect="non-scaling-stroke" d="M-148,-247 L144,-247" fill-rule="evenodd"/>
   </g>
   <g fill="none" transform="matrix(1,0,0,1,1438.95,1453.67)" stroke="#000000" stroke-width="1" font-weight="400" font-family="Ubuntu" stroke-linecap="square" stroke-opacity="1" font-style="normal" stroke-linejoin="bevel" font-size="35.2778">
    <text fill="#000000" fill-opacity="1" xml:space="preserve" stroke="none" x="4" font-weight="400" font-family="osifont" y="66" font-style="normal" font-size="47">292,00</text>
   </g>
   <g fill="none" transform="matrix(1,0,0,1,1485,1050)" stroke="#000000" stroke-width="3.5" font-weight="400" font-family="Ubuntu" stroke-linecap="round" stroke-opacity="1" font-style="normal" stroke-linejoin="bevel" font-size="35.2778">
    <path vector-effect="none" d="M-148,486.922 L144,486.922 M144,245 L144,514.922 M-148,245 L-148,514.922" fill-rule="evenodd"/>
   </g>
   <g fill="#000000" fill-opacity="1" transform="matrix(1,0,0,1,1629,1536.92)" stroke="#000000" stroke-width="3.5" font-weight="400" font-family="Ubuntu" stroke-linecap="round" stroke-opacity="1" font-style="normal" stroke-linejoin="bevel" font-size="35.2778">
    <path vector-effect="none" d="M0,0 L-35,-5.83333 L-35,5.83333 L0,0" fill-rule="evenodd"/>
   </g>
   <g fill="#000000" fill-opacity="1" transform="matrix(1,0,0,1,1337,1536.92)" stroke="#000000" stroke-width="3.5" font-weight="400" font-family="Ubuntu" stroke-linecap="round" stroke-opacity="1" font-style="normal" stroke-linejoin="bevel" font-size="35.2778">
    <path vector-effect="none" d="M0,0 L35,5.83333 L35,-5.83333 L0,0" fill-rule="evenodd"/>
   </g>
   <g fill="none" transform="matrix(0,-1,1,0,851.157,1074.53)" stroke="#000000" stroke-width="1" font-weight="400" font-family="Ubuntu" stroke-linecap="square" stroke-opacity="1" font-style="normal" stroke-linejoin="bevel" font-size="35.2778">
    <text fill="#000000" fill-opacity="1" xml:space="preserve" stroke="none" x="4" font-weight="400" font-family="osifont" y="66" font-style="normal" font-size="47">492,00</text>
   </g>
   <g fill="none" transform="matrix(1,0,0,1,1485,1050)" stroke="#000000" stroke-width="3.5" font-weight="400" font-family="Ubuntu" stroke-linecap="round" stroke-opacity="1" font-style="normal" stroke-linejoin="bevel" font-size="35.2778">
    <path vector-effect="none" d="M-550.593,245 L-550.593,-247 M-148,-247 L-578.593,-247 M-148,245 L-578.593,245" fill-rule="evenodd"/>
   </g>
   <g fill="#000000" fill-opacity="1" transform="matrix(1,0,0,1,934.407,803)" stroke="#000000" stroke-width="3.5" font-weight="400" font-family="Ubuntu" stroke-linecap="round" stroke-opacity="1" font-style="normal" stroke-linejoin="bevel" font-size="35.2778">
    <path vector-effect="none" d="M0,0 L-5.83333,35 L5.83333,35 L0,0" fill-rule="evenodd"/>
   </g>
   <g fill="#000000" fill-opacity="1" transform="matrix(1,0,0,1,934.407,1295)" stroke="#000000" stroke-width="3.5" font-weight="400" font-family="Ubuntu" stroke-linecap="round" stroke-opacity="1" font-style="normal" stroke-linejoin="bevel" font-size="35.2778">
    <path vector-effect="none" d="M0,0 L5.83333,-35 L-5.83333,-35 L0,0" fill-rule="evenodd"/>
   </g>
   <g fill="#ffffff" fill-opacity="1" transform="matrix(1,0,0,1,1485,500)" stroke="none" font-weight="400" font-family="Ubuntu" font-style="normal" font-size="35.2778">
    <path vector-effect="non-scaling-stroke" d="M-150,150 L150,150 L150,-150 L-150,-150 L-150,150" fill-rule="evenodd"/>
   </g>
   <g fill="none" transform="matrix(1,0,0,1,1485,500)" stroke="#000000" stroke-width="1" font-weight="400" font-family="Ubuntu" stroke-linecap="round" stroke-opacity="1" font-style="normal" stroke-linejoin="bevel" font-size="35.2778">
    <path vector-effect="non-scaling-stroke" d="M-150,150 L-150,-150" fill-rule="evenodd"/>
   </g>
   <g fill="none" transform="matrix(1,0,0,1,1485,500)" stroke="#000000" stroke-width="1" font-weight="400" font-family="Ubuntu" stroke-linecap="round" stroke-opacity="1" font-style="normal" stroke-linejoin="bevel" font-size="35.2778">
    <path vector-effect="non-scaling-stroke" d="M-150,-150 L150,-150" fill-rule="evenodd"/>
   </g>
   <g fill="none" transform="matrix(1,0,0,1,1485,500)" stroke="#000000" stroke-width="1" font-weight="400" font-family="Ubuntu" stroke-linecap="round" stroke-opacity="1" font-style="normal" stroke-linejoin="bevel" font-size="35.2778">
    <path vector-effect="non-scaling-stroke" d="M150,150 L150,-150" fill-rule="evenodd"/>
   </g>
   <g fill="none" transform="matrix(1,0,0,1,1485,500)" stroke="#000000" stroke-width="1" font-weight="400" font-family="Ubuntu" stroke-linecap="round" stroke-opacity="1" font-style="normal" stroke-linejoin="bevel" font-size="35.2778">
    <path vector-effect="non-scaling-stroke" d="M-150,150 L150,150" fill-rule="evenodd"/>
   </g>
   <g fill="none" transform="matrix(1,0,0,1,1425.42,751.541)" stroke="#000000" stroke-width="1" font-weight="400" font-family="Ubuntu" stroke-linecap="square" stroke-opacity="1" font-style="normal" stroke-linejoin="bevel" font-size="35.2778">
    <text fill="#000000" fill-opacity="1" xml:space="preserve" stroke="none" x="4" font-weight="400" font-family="osifont" y="66" font-style="normal" font-size="47">300,00</text>
   </g>
   <g fill="none" transform="matrix(1,0,0,1,1485,500)" stroke="#000000" stroke-width="3.5" font-weight="400" font-family="Ubuntu" stroke-linecap="round" stroke-opacity="1" font-style="normal" stroke-linejoin="bevel" font-size="35.2778">
    <path vector-effect="none" d="M-150,334.791 L150,334.791 M150,150 L150,362.791 M-150,150 L-150,362.791" fill-rule="evenodd"/>
   </g>
   <g fill="#000000" fill-opacity="1" transform="matrix(1,0,0,1,1635,834.791)" stroke="#000000" stroke-width="3.5" font-weight="400" font-family="Ubuntu" stroke-linecap="round" stroke-opacity="1" font-style="normal" stroke-linejoin="bevel" font-size="35.2778">
    <path vector-effect="none" d="M0,0 L-35,-5.83333 L-35,5.83333 L0,0" fill-rule="evenodd"/>
   </g>
   <g fill="#000000" fill-opacity="1" transform="matrix(1,0,0,1,1335,834.791)" stroke="#000000" stroke-width="3.5" font-weight="400" font-family="Ubuntu" stroke-linecap="round" stroke-opacity="1" font-style="normal" stroke-linejoin="bevel" font-size="35.2778">
    <path vector-effect="none" d="M0,0 L35,5.83333 L35,-5.83333 L0,0" fill-rule="evenodd"/>
   </g>
   <g fill="#ffffff" fill-opacity="1" transform="matrix(1,0,0,1,1935,1050)" stroke="none" font-weight="400" font-family="Ubuntu" font-style="normal" font-size="35.2778">
    <path vector-effect="non-scaling-stroke" d="M-150,-250 L150,-250 L150,250 L-150,250 L-150,-250" fill-rule="evenodd"/>
   </g>
   <g fill="none" transform="matrix(1,0,0,1,1935,1050)" stroke="#000000" stroke-width="1" font-weight="400" font-family="Ubuntu" stroke-linecap="round" stroke-opacity="1" font-style="normal" stroke-linejoin="bevel" font-size="35.2778">
    <path vector-effect="non-scaling-stroke" d="M-150,-250 L150,-250" fill-rule="evenodd"/>
   </g>
   <g fill="none" transform="matrix(1,0,0,1,1935,1050)" stroke="#000000" stroke-width="1" font-weight="400" font-family="Ubuntu" stroke-linecap="round" stroke-opacity="1" font-style="normal" stroke-linejoin="bevel" font-size="35.2778">
    <path vector-effect="non-scaling-stroke" d="M-150,-250 L-150,250" fill-rule="evenodd"/>
   </g>
   <g fill="none" transform="matrix(1,0,0,1,1935,1050)" stroke="#000000" stroke-width="1" font-weight="400" font-family="Ubuntu" stroke-linecap="round" stroke-opacity="1" font-style="normal" stroke-linejoin="bevel" font-size="35.2778">
    <path vector-effect="non-scaling-stroke" d="M-150,250 L150,250" fill-rule="evenodd"/>
   </g>
   <g fill="none" transform="matrix(1,0,0,1,1935,1050)" stroke="#000000" stroke-width="1" font-weight="400" font-family="Ubuntu" stroke-linecap="round" stroke-opacity="1" font-style="normal" stroke-linejoin="bevel" font-size="35.2778">
    <path vector-effect="non-scaling-stroke" d="M150,-250 L150,250" fill-rule="evenodd"/>
   </g>
   <g fill="none" transform="matrix(1,0,0,1,1875.42,1465.53)" stroke="#000000" stroke-width="1" font-weight="400" font-family="Ubuntu" stroke-linecap="square" stroke-opacity="1" font-style="normal" stroke-linejoin="bevel" font-size="35.2778">
    <text fill="#000000" fill-opacity="1" xml:space="preserve" stroke="none" x="4" font-weight="400" font-family="osifont" y="66" font-style="normal" font-size="47">300,00</text>
   </g>
   <g fill="none" transform="matrix(1,0,0,1,1935,1050)" stroke="#000000" stroke-width="3.5" font-weight="400" font-family="Ubuntu" stroke-linecap="round" stroke-opacity="1" font-style="normal" stroke-linejoin="bevel" font-size="35.2778">
    <path vector-effect="none" d="M-150,498.778 L150,498.778 M150,250 L150,526.778 M-150,250 L-150,526.778" fill-rule="evenodd"/>
   </g>
   <g fill="#000000" fill-opacity="1" transform="matrix(1,0,0,1,2085,1548.78)" stroke="#000000" stroke-width="3.5" font-weight="400" font-family="Ubuntu" stroke-linecap="round" stroke-opacity="1" font-style="normal" stroke-linejoin="bevel" font-size="35.2778">
    <path vector-effect="none" d="M0,0 L-35,-5.83333 L-35,5.83333 L0,0" fill-rule="evenodd"/>
   </g>
   <g fill="#000000" fill-opacity="1" transform="matrix(1,0,0,1,1785,1548.78)" stroke="#000000" stroke-width="3.5" font-weight="400" font-family="Ubuntu" stroke-linecap="round" stroke-opacity="1" font-style="normal" stroke-linejoin="bevel" font-size="35.2778">
    <path vector-effect="none" d="M0,0 L35,5.83333 L35,-5.83333 L0,0" fill-rule="evenodd"/>
   </g>
   <g fill="none" transform="matrix(0,-1,1,0,2223.2,1083.51)" stroke="#000000" stroke-width="1" font-weight="400" font-family="Ubuntu" stroke-linecap="square" stroke-opacity="1" font-style="normal" stroke-linejoin="bevel" font-size="35.2778">
    <text fill="#000000" fill-opacity="1" xml:space="preserve" stroke="none" x="4" font-weight="400" font-family="osifont" y="66" font-style="normal" font-size="47">500,00</text>
   </g>
   <g fill="none" transform="matrix(1,0,0,1,1935,1050)" stroke="#000000" stroke-width="3.5" font-weight="400" font-family="Ubuntu" stroke-linecap="round" stroke-opacity="1" font-style="normal" stroke-linejoin="bevel" font-size="35.2778">
    <path vector-effect="none" d="M371.453,-250 L371.453,250 M150,250 L399.453,250 M150,-250 L399.453,-250" fill-rule="evenodd"/>
   </g>
   <g fill="#000000" fill-opacity="1" transform="matrix(1,0,0,1,2306.45,1300)" stroke="#000000" stroke-width="3.5" font-weight="400" font-family="Ubuntu" stroke-linecap="round" stroke-opacity="1" font-style="normal" stroke-linejoin="bevel" font-size="35.2778">
    <path vector-effect="none" d="M0,0 L5.83333,-35 L-5.83333,-35 L0,0" fill-rule="evenodd"/>
   </g>
   <g fill="#000000" fill-opacity="1" transform="matrix(1,0,0,1,2306.45,800)" stroke="#000000" stroke-width="3.5" font-weight="400" font-family="Ubuntu" stroke-linecap="round" stroke-opacity="1" font-style="normal" stroke-linejoin="bevel" font-size="35.2778">
    <path vector-effect="none" d="M0,0 L-5.83333,35 L5.83333,35 L0,0" fill-rule="evenodd"/>
   </g>
  </g>
 </g>
</svg>
