<?xml version='1.0' encoding='UTF-8' standalone='no'?>
<svg xmlns:cc="http://creativecommons.org/ns#" height="297mm" xmlns:xlink="http://www.w3.org/1999/xlink" viewBox="0 0 2100 2970" width="210mm" xmlns:svg="http://www.w3.org/2000/svg" xmlns:sodipodi="http://sodipodi.sourceforge.net/DTD/sodipodi-0.dtd" xmlns:dc="http://purl.org/dc/elements/1.1/" baseProfile="tiny" xmlns:freecad="http://www.freecad.org/wiki/index.php?title=Svg_Namespace" xmlns:rdf="http://www.w3.org/1999/02/22-rdf-syntax-ns#" xmlns="http://www.w3.org/2000/svg" version="1.2" xmlns:inkscape="http://www.inkscape.org/namespaces/inkscape">
 <title>FreeCAD SVG Export</title>
 <desc>Drawing page: Page exported from FreeCAD document: dibujo_cristal_</desc>
 <defs/>
 <g id="Page" inkscape:label="TechDraw" inkscape:groupmode="layer">
  <g id="A4_Portrait_ISO7200TD.svg" transform="scale(10.000000, 10.000000)" style="stroke: none;">
   <metadata id="metadata119">
    <rdf:RDF>
     <cc:Work rdf:about="">
      <dc:format>image/svg+xml</dc:format>
      <dc:type rdf:resource="http://purl.org/dc/dcmitype/StillImage"/>
     </cc:Work>
    </rdf:RDF>
   </metadata>
   <!-- Working space 20 10 200 287 -->
   <!-- Title block 20 227 200 287 -->
   <g id="g111">
    <rect id="drawing-border" height="277" fill="none" x="20" stroke="#000" width="180" stroke-width=".35" stroke-linecap="miter" y="10"/>
    <!-- width-30, height-20 -->
    <g id="g109" transform="translate(0)">
     <!-- A4 Portrait based for other formats width-210, height-297 -->
     <!--        page       rect   translation
                     w    h    rw   rh   tx   ty
              A4-P  210  297  180  277    0    0
              A3-L  420  297  390  277  210    0
              A2-L  594  420  564  400  384  123
              A1-L  841  594  811  574  631  297
              A0-L 1189  841 1159  821  979  544
      -->
     <g id="titleblock-structure" fill="none" stroke="#000" stroke-width=".35" stroke-linecap="miter">
      <rect id="rect3" height="60" x="20" width="180" y="227"/>
      <path id="path5" d="m20 239h180"/>
      <path id="path7" d="m80 227v12"/>
      <path id="path9" d="m140 239v48"/>
      <path id="path11" d="m160 239v12"/>
      <path id="path13" d="m180 239v12"/>
      <path id="path15" d="m140 251h60"/>
      <path id="path17" d="m140 275h60"/>
      <path id="path19" d="m180 275v12"/>
     </g>
     <g id="titleblock-text-non-editable" font-family="osifont" font-size="3px">
      <text id="text22" x="21" y="230">Created by:</text>
      <text id="text24" x="81" y="230">Title:</text>
      <text id="text26" x="21" y="242">Supplementary information:</text>
      <text id="text28" x="141" y="242">Size:</text>
      <text id="text30" x="161" y="242">Sheet:</text>
      <text id="text32" x="181" y="242">Scale:</text>
      <text id="text34" x="141" y="254">Part number:</text>
      <text id="text36" x="141" y="266">Drawing number:</text>
      <text id="text38" x="141" y="278">Date:</text>
      <text id="text40" x="181" y="278">Revision:</text>
     </g>
     <g id="titleblock-text-editable" font-family="osifont" font-size="5px">
      <text id="text45" x="21" freecad:editable="AUTHOR_NAME" y="236">
       <tspan id="tspan43" xml:space="preserve">Guadalupe</tspan>
      </text>
      <text id="text49" x="81" freecad:editable="DRAWING_TITLE" y="236">
       <tspan id="tspan47" xml:space="preserve">DRAWING TITLE</tspan>
      </text>
      <text id="text53" x="21" freecad:editable="SI-1" y="248">
       <tspan id="tspan51" xml:space="preserve"/>
      </text>
      <text id="text57" x="21" freecad:editable="SI-2" y="255">
       <tspan id="tspan55" xml:space="preserve"/>
      </text>
      <text id="text61" x="21" freecad:editable="FreeCAD_DRAWING" y="262">
       <tspan id="tspan59" xml:space="preserve">dibujo cristal</tspan>
      </text>
      <text id="text65" x="21" freecad:editable="SI-4" y="269">
       <tspan id="tspan63" xml:space="preserve"/>
      </text>
      <text id="text69" x="21" freecad:editable="SI-5" y="276">
       <tspan id="tspan67" xml:space="preserve"/>
      </text>
      <text id="text73" x="21" freecad:editable="SI-6" y="283">
       <tspan id="tspan71" xml:space="preserve"/>
      </text>
      <text id="text77" x="141" freecad:editable="FC-SI" y="248">
       <tspan id="tspan75" xml:space="preserve">A4</tspan>
      </text>
      <text id="text81" x="161" freecad:editable="FC-SH" y="248">
       <tspan id="tspan79" xml:space="preserve">X / Y</tspan>
      </text>
      <text id="text85" x="181" freecad:editable="FC-SC" y="248">
       <tspan id="tspan83" xml:space="preserve">SCALE</tspan>
      </text>
      <text id="text89" x="141" freecad:editable="PN" y="260">
       <tspan id="tspan87" xml:space="preserve">PN</tspan>
      </text>
      <text id="text93" x="141" freecad:editable="DN" y="272">
       <tspan id="tspan91" xml:space="preserve">DN</tspan>
      </text>
      <text id="text97" x="141" freecad:editable="FC-DATE" y="284">
       <tspan id="tspan95" xml:space="preserve">19/02/2025</tspan>
      </text>
      <text id="text101" x="181" freecad:editable="FC-REV" y="284">
       <tspan id="tspan99" xml:space="preserve">REV A</tspan>
      </text>
     </g>
     <!-- Set display:none to hide FreeCAD Logo -->
     <g id="freecad-logo" transform="translate(128.5,276)" fill="none" stroke="#000" stroke-width=".35" fill-rule="evenodd">
      <path id="path104" d="m0.1524 0.15254v8.8549h1.9744v-3.4652h1.396v-1.3661h-1.396v-1.4745h3.4391v-2.5441l-5.4135-5e-3z"/>
      <path id="path106" d="m7.7927 3.4504-0.50715-0.176-0.48387-1.2366-0.76115 0.04-0.34718 1.2787-0.4859 0.23269-1.2119-0.53015-0.51188 0.56882 0.65892 1.1485-0.18006 0.50567-1.2366 0.48387 0.044064 0.76263 1.2787 0.34718 0.23269 0.4859-0.53421 1.2104 0.56882 0.51188 1.1485-0.65891 0.50973 0.18155 0.4798 1.2351 0.7667-0.04258 0.34311-1.2802 0.4859-0.23269 1.2145 0.5357 0.51188-0.56882-0.65891-1.1485 0.17748-0.51122 1.2351-0.4798-0.03851-0.76521-1.2802-0.34311-0.23269-0.4859 0.53163-1.216-0.56881-0.51184zm-0.5715 1.2244 0.23576 0.13679 0.20426 0.18519 0.16353 0.22101 0.11763 0.24572 0.06916 0.26489 0.01146 0.27146-0.03921 0.27139-0.08948 0.25764-0.14234 0.23834-0.17964 0.20167-0.22101 0.16353-0.24572 0.11763-0.26489 0.06916-0.27295 0.01553-0.2719-0.04-0.2576-0.089-0.2383-0.143-0.2002-0.183-0.165-0.217-0.1177-0.246-0.0676-0.269-0.0156-0.273 0.039206-0.2714 0.089484-0.25764 0.14085-0.23427 0.18113-0.20574 0.22101-0.16352 0.24572-0.11763 0.26895-0.06768 0.27147-0.01146 0.27139 0.03921 0.25764 0.08948z"/>
     </g>
    </g>
   </g>
   <!-- DrawingContent -->
  </g>
  <g id="DrawingContent" fill="none" stroke="black" stroke-width="1" stroke-linecap="square" fill-rule="evenodd" stroke-linejoin="bevel">
   <g fill="none" transform="matrix(1,0,0,1,735.579,613.97)" stroke="#000000" stroke-width="1" font-weight="400" font-family="Ubuntu" stroke-linecap="square" stroke-opacity="1" font-style="normal" stroke-linejoin="bevel" font-size="35.2778">
    <rect height="0" x="0" width="0" y="0"/>
   </g>
   <g fill="#ffffff" fill-opacity="1" transform="matrix(1,0,0,1,735.579,613.97)" stroke="none" font-weight="400" font-family="Ubuntu" font-style="normal" font-size="35.2778">
    <path vector-effect="non-scaling-stroke" d="M-146,4 L146,4 L146,-4 L-146,-4 L-146,4" fill-rule="evenodd"/>
   </g>
   <g fill="none" transform="matrix(1,0,0,1,735.579,613.97)" stroke="#000000" stroke-width="1" font-weight="400" font-family="Ubuntu" stroke-linecap="round" stroke-opacity="1" font-style="normal" stroke-linejoin="bevel" font-size="35.2778">
    <path vector-effect="non-scaling-stroke" d="M-146,4 L-146,-4" fill-rule="evenodd"/>
   </g>
   <g fill="none" transform="matrix(1,0,0,1,735.579,613.97)" stroke="#000000" stroke-width="1" font-weight="400" font-family="Ubuntu" stroke-linecap="round" stroke-opacity="1" font-style="normal" stroke-linejoin="bevel" font-size="35.2778">
    <path vector-effect="non-scaling-stroke" d="M146,4 L146,-4" fill-rule="evenodd"/>
   </g>
   <g fill="none" transform="matrix(1,0,0,1,735.579,613.97)" stroke="#000000" stroke-width="1" font-weight="400" font-family="Ubuntu" stroke-linecap="round" stroke-opacity="1" font-style="normal" stroke-linejoin="bevel" font-size="35.2778">
    <path vector-effect="non-scaling-stroke" d="M-146,4 L146,4" fill-rule="evenodd"/>
   </g>
   <g fill="none" transform="matrix(1,0,0,1,735.579,613.97)" stroke="#000000" stroke-width="1" font-weight="400" font-family="Ubuntu" stroke-linecap="round" stroke-opacity="1" font-style="normal" stroke-linejoin="bevel" font-size="35.2778">
    <path vector-effect="non-scaling-stroke" d="M-146,-4 L146,-4" fill-rule="evenodd"/>
   </g>
   <g fill="none" transform="matrix(1,0,0,1,653.049,378.421)" stroke="#000000" stroke-width="1" font-weight="400" font-family="Ubuntu" stroke-linecap="square" stroke-opacity="1" font-style="normal" stroke-linejoin="bevel" font-size="35.2778">
    <text fill="#000000" fill-opacity="1" xml:space="preserve" stroke="none" x="4" font-weight="400" font-family="osifont" y="93" font-style="normal" font-size="67">292</text>
   </g>
   <g fill="none" transform="matrix(1,0,0,1,735.579,613.97)" stroke="#000000" stroke-width="3.5" font-weight="400" font-family="Ubuntu" stroke-linecap="round" stroke-opacity="1" font-style="normal" stroke-linejoin="bevel" font-size="35.2778">
    <path vector-effect="none" d="M-146,-125.299 L146,-125.299 M146,4 L146,-153.299 M-146,4 L-146,-153.299" fill-rule="evenodd"/>
   </g>
   <g fill="#000000" fill-opacity="1" transform="matrix(1,0,0,1,881.579,488.671)" stroke="#000000" stroke-width="3.5" font-weight="400" font-family="Ubuntu" stroke-linecap="round" stroke-opacity="1" font-style="normal" stroke-linejoin="bevel" font-size="35.2778">
    <path vector-effect="none" d="M0,0 L-35,-5.83333 L-35,5.83333 L0,0" fill-rule="evenodd"/>
   </g>
   <g fill="#000000" fill-opacity="1" transform="matrix(1,0,0,1,589.579,488.671)" stroke="#000000" stroke-width="3.5" font-weight="400" font-family="Ubuntu" stroke-linecap="round" stroke-opacity="1" font-style="normal" stroke-linejoin="bevel" font-size="35.2778">
    <path vector-effect="none" d="M0,0 L35,5.83333 L35,-5.83333 L0,0" fill-rule="evenodd"/>
   </g>
   <g fill="#ffffff" fill-opacity="1" transform="matrix(1,0,0,1,735.579,1013.97)" stroke="none" font-weight="400" font-family="Ubuntu" font-style="normal" font-size="35.2778">
    <path vector-effect="non-scaling-stroke" d="M-146,246 L146,246 L146,-246 L-146,-246 L-146,246" fill-rule="evenodd"/>
   </g>
   <g fill="none" transform="matrix(1,0,0,1,735.579,1013.97)" stroke="#000000" stroke-width="1" font-weight="400" font-family="Ubuntu" stroke-linecap="round" stroke-opacity="1" font-style="normal" stroke-linejoin="bevel" font-size="35.2778">
    <path vector-effect="non-scaling-stroke" d="M-146,246 L-146,-246" fill-rule="evenodd"/>
   </g>
   <g fill="none" transform="matrix(1,0,0,1,735.579,1013.97)" stroke="#000000" stroke-width="1" font-weight="400" font-family="Ubuntu" stroke-linecap="round" stroke-opacity="1" font-style="normal" stroke-linejoin="bevel" font-size="35.2778">
    <path vector-effect="non-scaling-stroke" d="M146,246 L146,-246" fill-rule="evenodd"/>
   </g>
   <g fill="none" transform="matrix(1,0,0,1,735.579,1013.97)" stroke="#000000" stroke-width="1" font-weight="400" font-family="Ubuntu" stroke-linecap="round" stroke-opacity="1" font-style="normal" stroke-linejoin="bevel" font-size="35.2778">
    <path vector-effect="non-scaling-stroke" d="M-146,246 L146,246" fill-rule="evenodd"/>
   </g>
   <g fill="none" transform="matrix(1,0,0,1,735.579,1013.97)" stroke="#000000" stroke-width="1" font-weight="400" font-family="Ubuntu" stroke-linecap="round" stroke-opacity="1" font-style="normal" stroke-linejoin="bevel" font-size="35.2778">
    <path vector-effect="non-scaling-stroke" d="M-146,-246 L146,-246" fill-rule="evenodd"/>
   </g>
   <g fill="none" transform="matrix(0,-1,1,0,900.225,1079.43)" stroke="#000000" stroke-width="1" font-weight="400" font-family="Ubuntu" stroke-linecap="square" stroke-opacity="1" font-style="normal" stroke-linejoin="bevel" font-size="35.2778">
    <text fill="#000000" fill-opacity="1" xml:space="preserve" stroke="none" x="4" font-weight="400" font-family="osifont" y="93" font-style="normal" font-size="67">492</text>
   </g>
   <g fill="none" transform="matrix(1,0,0,1,735.579,1013.97)" stroke="#000000" stroke-width="3.5" font-weight="400" font-family="Ubuntu" stroke-linecap="round" stroke-opacity="1" font-style="normal" stroke-linejoin="bevel" font-size="35.2778">
    <path vector-effect="none" d="M274.895,246 L274.895,-246 M146,-246 L302.895,-246 M146,246 L302.895,246" fill-rule="evenodd"/>
   </g>
   <g fill="#000000" fill-opacity="1" transform="matrix(1,0,0,1,1010.47,767.97)" stroke="#000000" stroke-width="3.5" font-weight="400" font-family="Ubuntu" stroke-linecap="round" stroke-opacity="1" font-style="normal" stroke-linejoin="bevel" font-size="35.2778">
    <path vector-effect="none" d="M0,0 L-5.83333,35 L5.83333,35 L0,0" fill-rule="evenodd"/>
   </g>
   <g fill="#000000" fill-opacity="1" transform="matrix(1,0,0,1,1010.47,1259.97)" stroke="#000000" stroke-width="3.5" font-weight="400" font-family="Ubuntu" stroke-linecap="round" stroke-opacity="1" font-style="normal" stroke-linejoin="bevel" font-size="35.2778">
    <path vector-effect="none" d="M0,0 L5.83333,-35 L-5.83333,-35 L0,0" fill-rule="evenodd"/>
   </g>
   <g fill="none" transform="matrix(1,0,0,1,687.04,1356.09)" stroke="#000000" stroke-width="1" font-weight="400" font-family="Ubuntu" stroke-linecap="square" stroke-opacity="1" font-style="normal" stroke-linejoin="bevel" font-size="35.2778">
    <text fill="#000000" fill-opacity="1" xml:space="preserve" stroke="none" x="4" font-weight="400" font-family="osifont" y="93" font-style="normal" font-size="67">292</text>
   </g>
   <g fill="none" transform="matrix(1,0,0,1,735.579,1013.97)" stroke="#000000" stroke-width="3.5" font-weight="400" font-family="Ubuntu" stroke-linecap="round" stroke-opacity="1" font-style="normal" stroke-linejoin="bevel" font-size="35.2778">
    <path vector-effect="none" d="M-146,452.367 L146,452.367 M146,246 L146,480.367 M-146,246 L-146,480.367" fill-rule="evenodd"/>
   </g>
   <g fill="#000000" fill-opacity="1" transform="matrix(1,0,0,1,881.579,1466.34)" stroke="#000000" stroke-width="3.5" font-weight="400" font-family="Ubuntu" stroke-linecap="round" stroke-opacity="1" font-style="normal" stroke-linejoin="bevel" font-size="35.2778">
    <path vector-effect="none" d="M0,0 L-35,-5.83333 L-35,5.83333 L0,0" fill-rule="evenodd"/>
   </g>
   <g fill="#000000" fill-opacity="1" transform="matrix(1,0,0,1,589.579,1466.34)" stroke="#000000" stroke-width="3.5" font-weight="400" font-family="Ubuntu" stroke-linecap="round" stroke-opacity="1" font-style="normal" stroke-linejoin="bevel" font-size="35.2778">
    <path vector-effect="none" d="M0,0 L35,5.83333 L35,-5.83333 L0,0" fill-rule="evenodd"/>
   </g>
   <g fill="#ffffff" fill-opacity="1" transform="matrix(1,0,0,1,1277.58,613.97)" stroke="none" font-weight="400" font-family="Ubuntu" font-style="normal" font-size="35.2778">
    <path vector-effect="non-scaling-stroke" d="M246,4 L246,-4 L-246,-4 L-246,4 L246,4" fill-rule="evenodd"/>
   </g>
   <g fill="none" transform="matrix(1,0,0,1,1277.58,613.97)" stroke="#000000" stroke-width="1" font-weight="400" font-family="Ubuntu" stroke-linecap="round" stroke-opacity="1" font-style="normal" stroke-linejoin="bevel" font-size="35.2778">
    <path vector-effect="non-scaling-stroke" d="M246,4 L246,-4" fill-rule="evenodd"/>
   </g>
   <g fill="none" transform="matrix(1,0,0,1,1277.58,613.97)" stroke="#000000" stroke-width="1" font-weight="400" font-family="Ubuntu" stroke-linecap="round" stroke-opacity="1" font-style="normal" stroke-linejoin="bevel" font-size="35.2778">
    <path vector-effect="non-scaling-stroke" d="M246,-4 L-246,-4" fill-rule="evenodd"/>
   </g>
   <g fill="none" transform="matrix(1,0,0,1,1277.58,613.97)" stroke="#000000" stroke-width="1" font-weight="400" font-family="Ubuntu" stroke-linecap="round" stroke-opacity="1" font-style="normal" stroke-linejoin="bevel" font-size="35.2778">
    <path vector-effect="non-scaling-stroke" d="M-246,4 L-246,-4" fill-rule="evenodd"/>
   </g>
   <g fill="none" transform="matrix(1,0,0,1,1277.58,613.97)" stroke="#000000" stroke-width="1" font-weight="400" font-family="Ubuntu" stroke-linecap="round" stroke-opacity="1" font-style="normal" stroke-linejoin="bevel" font-size="35.2778">
    <path vector-effect="non-scaling-stroke" d="M246,4 L-246,4" fill-rule="evenodd"/>
   </g>
   <g fill="none" transform="matrix(1,0,0,1,1236,756.576)" stroke="#000000" stroke-width="1" font-weight="400" font-family="Ubuntu" stroke-linecap="square" stroke-opacity="1" font-style="normal" stroke-linejoin="bevel" font-size="35.2778">
    <text fill="#000000" fill-opacity="1" xml:space="preserve" stroke="none" x="4" font-weight="400" font-family="osifont" y="93" font-style="normal" font-size="67">492</text>
   </g>
   <g fill="none" transform="matrix(1,0,0,1,1277.58,613.97)" stroke="#000000" stroke-width="3.5" font-weight="400" font-family="Ubuntu" stroke-linecap="round" stroke-opacity="1" font-style="normal" stroke-linejoin="bevel" font-size="35.2778">
    <path vector-effect="none" d="M246,252.856 L-246,252.856 M-246,4 L-246,280.856 M246,4 L246,280.856" fill-rule="evenodd"/>
   </g>
   <g fill="#000000" fill-opacity="1" transform="matrix(1,0,0,1,1031.58,866.826)" stroke="#000000" stroke-width="3.5" font-weight="400" font-family="Ubuntu" stroke-linecap="round" stroke-opacity="1" font-style="normal" stroke-linejoin="bevel" font-size="35.2778">
    <path vector-effect="none" d="M0,0 L35,5.83333 L35,-5.83333 L0,0" fill-rule="evenodd"/>
   </g>
   <g fill="#000000" fill-opacity="1" transform="matrix(1,0,0,1,1523.58,866.826)" stroke="#000000" stroke-width="3.5" font-weight="400" font-family="Ubuntu" stroke-linecap="round" stroke-opacity="1" font-style="normal" stroke-linejoin="bevel" font-size="35.2778">
    <path vector-effect="none" d="M0,0 L-35,-5.83333 L-35,5.83333 L0,0" fill-rule="evenodd"/>
   </g>
  </g>
 </g>
</svg>
