<?xml version='1.0' encoding='UTF-8' standalone='no'?>
<svg xmlns:cc="http://creativecommons.org/ns#" height="297mm" xmlns:xlink="http://www.w3.org/1999/xlink" viewBox="0 0 2100 2970" width="210mm" xmlns:svg="http://www.w3.org/2000/svg" xmlns:sodipodi="http://sodipodi.sourceforge.net/DTD/sodipodi-0.dtd" xmlns:dc="http://purl.org/dc/elements/1.1/" baseProfile="tiny" xmlns:freecad="http://www.freecad.org/wiki/index.php?title=Svg_Namespace" xmlns:rdf="http://www.w3.org/1999/02/22-rdf-syntax-ns#" xmlns="http://www.w3.org/2000/svg" version="1.2" xmlns:inkscape="http://www.inkscape.org/namespaces/inkscape">
 <title>FreeCAD SVG Export</title>
 <desc>Drawing page: Page002 exported from FreeCAD document: medidas_soporte_pequ__o</desc>
 <defs/>
 <g id="Page002" inkscape:label="TechDraw" inkscape:groupmode="layer">
  <g id="A4_Portrait_ISO7200TD1.svg" transform="scale(10.000000, 10.000000)" style="stroke: none;">
   <metadata id="metadata119">
    <rdf:RDF>
     <cc:Work rdf:about="">
      <dc:format>image/svg+xml</dc:format>
      <dc:type rdf:resource="http://purl.org/dc/dcmitype/StillImage"/>
     </cc:Work>
    </rdf:RDF>
   </metadata>
   <!-- Working space 20 10 200 287 -->
   <!-- Title block 20 227 200 287 -->
   <g id="g111">
    <rect id="drawing-border" height="277" fill="none" x="20" stroke="#000" width="180" stroke-width=".35" stroke-linecap="miter" y="10"/>
    <!-- width-30, height-20 -->
    <g id="g109" transform="translate(0)">
     <!-- A4 Portrait based for other formats width-210, height-297 -->
     <!--        page       rect   translation
                     w    h    rw   rh   tx   ty
              A4-P  210  297  180  277    0    0
              A3-L  420  297  390  277  210    0
              A2-L  594  420  564  400  384  123
              A1-L  841  594  811  574  631  297
              A0-L 1189  841 1159  821  979  544
      -->
     <g id="titleblock-structure" fill="none" stroke="#000" stroke-width=".35" stroke-linecap="miter">
      <rect id="rect3" height="60" x="20" width="180" y="227"/>
      <path id="path5" d="m20 239h180"/>
      <path id="path7" d="m80 227v12"/>
      <path id="path9" d="m140 239v48"/>
      <path id="path11" d="m160 239v12"/>
      <path id="path13" d="m180 239v12"/>
      <path id="path15" d="m140 251h60"/>
      <path id="path17" d="m140 275h60"/>
      <path id="path19" d="m180 275v12"/>
     </g>
     <g id="titleblock-text-non-editable" font-family="osifont" font-size="3px">
      <text id="text22" x="21" y="230">Created by:</text>
      <text id="text24" x="81" y="230">Title:</text>
      <text id="text26" x="21" y="242">Supplementary information:</text>
      <text id="text28" x="141" y="242">Size:</text>
      <text id="text30" x="161" y="242">Sheet:</text>
      <text id="text32" x="181" y="242">Scale:</text>
      <text id="text34" x="141" y="254">Part number:</text>
      <text id="text36" x="141" y="266">Drawing number:</text>
      <text id="text38" x="141" y="278">Date:</text>
      <text id="text40" x="181" y="278">Revision:</text>
     </g>
     <g id="titleblock-text-editable" font-family="osifont" font-size="5px">
      <text id="text45" x="21" freecad:editable="AUTHOR_NAME" y="236">
       <tspan id="tspan43" xml:space="preserve">Guadalupe</tspan>
      </text>
      <text id="text49" x="81" freecad:editable="DRAWING_TITLE" y="236">
       <tspan id="tspan47" xml:space="preserve">DRAWING TITLE</tspan>
      </text>
      <text id="text53" x="21" freecad:editable="SI-1" y="248">
       <tspan id="tspan51" xml:space="preserve"/>
      </text>
      <text id="text57" x="21" freecad:editable="SI-2" y="255">
       <tspan id="tspan55" xml:space="preserve"/>
      </text>
      <text id="text61" x="21" freecad:editable="FreeCAD_DRAWING" y="262">
       <tspan id="tspan59" xml:space="preserve">FreeCAD DRAWING</tspan>
      </text>
      <text id="text65" x="21" freecad:editable="SI-4" y="269">
       <tspan id="tspan63" xml:space="preserve"/>
      </text>
      <text id="text69" x="21" freecad:editable="SI-5" y="276">
       <tspan id="tspan67" xml:space="preserve"/>
      </text>
      <text id="text73" x="21" freecad:editable="SI-6" y="283">
       <tspan id="tspan71" xml:space="preserve"/>
      </text>
      <text id="text77" x="141" freecad:editable="FC-SI" y="248">
       <tspan id="tspan75" xml:space="preserve">A4</tspan>
      </text>
      <text id="text81" x="161" freecad:editable="FC-SH" y="248">
       <tspan id="tspan79" xml:space="preserve">X / Y</tspan>
      </text>
      <text id="text85" x="181" freecad:editable="FC-SC" y="248">
       <tspan id="tspan83" xml:space="preserve">SCALE</tspan>
      </text>
      <text id="text89" x="141" freecad:editable="PN" y="260">
       <tspan id="tspan87" xml:space="preserve">PN</tspan>
      </text>
      <text id="text93" x="141" freecad:editable="DN" y="272">
       <tspan id="tspan91" xml:space="preserve">DN</tspan>
      </text>
      <text id="text97" x="141" freecad:editable="FC-DATE" y="284">
       <tspan id="tspan95" xml:space="preserve">20/02/2025</tspan>
      </text>
      <text id="text101" x="181" freecad:editable="FC-REV" y="284">
       <tspan id="tspan99" xml:space="preserve">REV A</tspan>
      </text>
     </g>
     <!-- Set display:none to hide FreeCAD Logo -->
     <g id="freecad-logo" transform="translate(128.5,276)" fill="none" stroke="#000" stroke-width=".35" fill-rule="evenodd">
      <path id="path104" d="m0.1524 0.15254v8.8549h1.9744v-3.4652h1.396v-1.3661h-1.396v-1.4745h3.4391v-2.5441l-5.4135-5e-3z"/>
      <path id="path106" d="m7.7927 3.4504-0.50715-0.176-0.48387-1.2366-0.76115 0.04-0.34718 1.2787-0.4859 0.23269-1.2119-0.53015-0.51188 0.56882 0.65892 1.1485-0.18006 0.50567-1.2366 0.48387 0.044064 0.76263 1.2787 0.34718 0.23269 0.4859-0.53421 1.2104 0.56882 0.51188 1.1485-0.65891 0.50973 0.18155 0.4798 1.2351 0.7667-0.04258 0.34311-1.2802 0.4859-0.23269 1.2145 0.5357 0.51188-0.56882-0.65891-1.1485 0.17748-0.51122 1.2351-0.4798-0.03851-0.76521-1.2802-0.34311-0.23269-0.4859 0.53163-1.216-0.56881-0.51184zm-0.5715 1.2244 0.23576 0.13679 0.20426 0.18519 0.16353 0.22101 0.11763 0.24572 0.06916 0.26489 0.01146 0.27146-0.03921 0.27139-0.08948 0.25764-0.14234 0.23834-0.17964 0.20167-0.22101 0.16353-0.24572 0.11763-0.26489 0.06916-0.27295 0.01553-0.2719-0.04-0.2576-0.089-0.2383-0.143-0.2002-0.183-0.165-0.217-0.1177-0.246-0.0676-0.269-0.0156-0.273 0.039206-0.2714 0.089484-0.25764 0.14085-0.23427 0.18113-0.20574 0.22101-0.16352 0.24572-0.11763 0.26895-0.06768 0.27147-0.01146 0.27139 0.03921 0.25764 0.08948z"/>
     </g>
    </g>
   </g>
   <!-- DrawingContent -->
  </g>
  <g id="DrawingContent" fill="none" stroke="black" stroke-width="1" stroke-linecap="square" fill-rule="evenodd" stroke-linejoin="bevel">
   <g fill="none" transform="matrix(1,0,0,1,833.305,677.704)" stroke="#000000" stroke-width="1" font-weight="400" font-family="Ubuntu" stroke-linecap="square" stroke-opacity="1" font-style="normal" stroke-linejoin="bevel" font-size="35.2778">
    <rect height="0" x="0" width="0" y="0"/>
   </g>
   <g fill="#ffffff" fill-opacity="1" transform="matrix(1,0,0,1,833.305,677.704)" stroke="none" font-weight="400" font-family="Ubuntu" font-style="normal" font-size="35.2778">
    <path vector-effect="non-scaling-stroke" d="M-158.038,-119.821 L189.858,81.0373 L189.858,101.45 L158.038,119.821 L-189.858,-81.0373 L-189.858,-101.45 L-158.038,-119.821" fill-rule="evenodd"/>
   </g>
   <g fill="#ffffff" fill-opacity="1" transform="matrix(1,0,0,1,833.305,677.704)" stroke="none" font-weight="400" font-family="Ubuntu" font-style="normal" font-size="35.2778">
    <path vector-effect="non-scaling-stroke" d="M-158.038,-119.821 L189.858,81.0373 L158.038,99.4085 L-189.858,-101.45 L-158.038,-119.821" fill-rule="evenodd"/>
   </g>
   <g fill="#ffffff" fill-opacity="1" transform="matrix(1,0,0,1,833.305,677.704)" stroke="none" font-weight="400" font-family="Ubuntu" font-style="normal" font-size="35.2778">
    <path vector-effect="non-scaling-stroke" d="M-189.858,-101.45 L158.038,99.4085 L158.038,119.821 L-189.858,-81.0373 L-189.858,-101.45" fill-rule="evenodd"/>
   </g>
   <g fill="#ffffff" fill-opacity="1" transform="matrix(1,0,0,1,833.305,677.704)" stroke="none" font-weight="400" font-family="Ubuntu" font-style="normal" font-size="35.2778">
    <path vector-effect="non-scaling-stroke" d="M189.858,81.0373 L189.858,101.45 L158.038,119.821 L158.038,99.4085 L189.858,81.0373" fill-rule="evenodd"/>
   </g>
   <g fill="none" transform="matrix(1,0,0,1,833.305,677.704)" stroke="#000000" stroke-width="1" font-weight="400" font-family="Ubuntu" stroke-linecap="round" stroke-opacity="1" font-style="normal" stroke-linejoin="bevel" font-size="35.2778">
    <path vector-effect="non-scaling-stroke" d="M-158.038,-119.821 L189.858,81.0373" fill-rule="evenodd"/>
   </g>
   <g fill="none" transform="matrix(1,0,0,1,833.305,677.704)" stroke="#000000" stroke-width="1" font-weight="400" font-family="Ubuntu" stroke-linecap="round" stroke-opacity="1" font-style="normal" stroke-linejoin="bevel" font-size="35.2778">
    <path vector-effect="non-scaling-stroke" d="M189.858,81.0373 L189.858,101.45" fill-rule="evenodd"/>
   </g>
   <g fill="none" transform="matrix(1,0,0,1,833.305,677.704)" stroke="#000000" stroke-width="1" font-weight="400" font-family="Ubuntu" stroke-linecap="round" stroke-opacity="1" font-style="normal" stroke-linejoin="bevel" font-size="35.2778">
    <path vector-effect="non-scaling-stroke" d="M-189.858,-101.45 L158.038,99.4085" fill-rule="evenodd"/>
   </g>
   <g fill="none" transform="matrix(1,0,0,1,833.305,677.704)" stroke="#000000" stroke-width="1" font-weight="400" font-family="Ubuntu" stroke-linecap="round" stroke-opacity="1" font-style="normal" stroke-linejoin="bevel" font-size="35.2778">
    <path vector-effect="non-scaling-stroke" d="M158.038,99.4085 L158.038,119.821" fill-rule="evenodd"/>
   </g>
   <g fill="none" transform="matrix(1,0,0,1,833.305,677.704)" stroke="#000000" stroke-width="1" font-weight="400" font-family="Ubuntu" stroke-linecap="round" stroke-opacity="1" font-style="normal" stroke-linejoin="bevel" font-size="35.2778">
    <path vector-effect="non-scaling-stroke" d="M-189.858,-81.0373 L158.038,119.821" fill-rule="evenodd"/>
   </g>
   <g fill="none" transform="matrix(1,0,0,1,833.305,677.704)" stroke="#000000" stroke-width="1" font-weight="400" font-family="Ubuntu" stroke-linecap="round" stroke-opacity="1" font-style="normal" stroke-linejoin="bevel" font-size="35.2778">
    <path vector-effect="non-scaling-stroke" d="M-189.858,-101.45 L-189.858,-81.0373" fill-rule="evenodd"/>
   </g>
   <g fill="none" transform="matrix(1,0,0,1,833.305,677.704)" stroke="#000000" stroke-width="1" font-weight="400" font-family="Ubuntu" stroke-linecap="round" stroke-opacity="1" font-style="normal" stroke-linejoin="bevel" font-size="35.2778">
    <path vector-effect="non-scaling-stroke" d="M-158.038,-119.821 L-189.858,-101.45" fill-rule="evenodd"/>
   </g>
   <g fill="none" transform="matrix(1,0,0,1,833.305,677.704)" stroke="#000000" stroke-width="1" font-weight="400" font-family="Ubuntu" stroke-linecap="round" stroke-opacity="1" font-style="normal" stroke-linejoin="bevel" font-size="35.2778">
    <path vector-effect="non-scaling-stroke" d="M189.858,81.0373 L158.038,99.4085" fill-rule="evenodd"/>
   </g>
   <g fill="none" transform="matrix(1,0,0,1,833.305,677.704)" stroke="#000000" stroke-width="1" font-weight="400" font-family="Ubuntu" stroke-linecap="round" stroke-opacity="1" font-style="normal" stroke-linejoin="bevel" font-size="35.2778">
    <path vector-effect="non-scaling-stroke" d="M189.858,101.45 L158.038,119.821" fill-rule="evenodd"/>
   </g>
   <g fill="none" transform="matrix(0.866025,0.5,-0.5,0.866025,823.854,720.166)" stroke="#000000" stroke-width="1" font-weight="400" font-family="Ubuntu" stroke-linecap="square" stroke-opacity="1" font-style="normal" stroke-linejoin="bevel" font-size="35.2778">
    <text fill="#000000" fill-opacity="1" xml:space="preserve" stroke="none" x="4" font-weight="400" font-family="osifont" y="93" font-style="normal" font-size="67">401,72</text>
   </g>
   <g fill="none" transform="matrix(1,0,0,1,833.305,677.704)" stroke="#000000" stroke-width="3.5" font-weight="400" font-family="Ubuntu" stroke-linecap="round" stroke-opacity="1" font-style="normal" stroke-linejoin="bevel" font-size="35.2778">
    <path vector-effect="none" d="M-324.319,-8.55679 L144.821,262.301 M158.038,99.4085 L70.1994,251.55 M-189.858,-101.45 L-277.697,50.6919" fill-rule="evenodd"/>
   </g>
   <g fill="#000000" fill-opacity="1" transform="matrix(1,0,0,1,917.504,905.005)" stroke="#000000" stroke-width="3.5" font-weight="400" font-family="Ubuntu" stroke-linecap="round" stroke-opacity="1" font-style="normal" stroke-linejoin="bevel" font-size="35.2778">
    <path vector-effect="none" d="M0,0 L27.3942,22.5518 L33.2276,12.4482 L0,0" fill-rule="evenodd"/>
   </g>
   <g fill="#000000" fill-opacity="1" transform="matrix(1,0,0,1,569.608,704.147)" stroke="#000000" stroke-width="3.5" font-weight="400" font-family="Ubuntu" stroke-linecap="round" stroke-opacity="1" font-style="normal" stroke-linejoin="bevel" font-size="35.2778">
    <path vector-effect="none" d="M0,0 L-27.3942,-22.5518 L-33.2276,-12.4482 L0,0" fill-rule="evenodd"/>
   </g>
   <g fill="none" transform="matrix(1,0,0,1,972.381,799.601)" stroke="#000000" stroke-width="1" font-weight="400" font-family="Ubuntu" stroke-linecap="square" stroke-opacity="1" font-style="normal" stroke-linejoin="bevel" font-size="35.2778">
    <text fill="#000000" fill-opacity="1" xml:space="preserve" stroke="none" x="4" font-weight="400" font-family="osifont" y="93" font-style="normal" font-size="67">31,82</text>
   </g>
   <g fill="none" transform="matrix(1,0,0,1,833.305,677.704)" stroke="#000000" stroke-width="3.5" font-weight="400" font-family="Ubuntu" stroke-linecap="round" stroke-opacity="1" font-style="normal" stroke-linejoin="bevel" font-size="35.2778">
    <path vector-effect="none" d="M283.666,235.147 L88.0384,235.147 M158.038,119.821 L158.038,263.147 M189.858,101.45 L189.858,263.147" fill-rule="evenodd"/>
   </g>
   <g fill="#000000" fill-opacity="1" transform="matrix(1,0,0,1,991.343,912.851)" stroke="#000000" stroke-width="3.5" font-weight="400" font-family="Ubuntu" stroke-linecap="round" stroke-opacity="1" font-style="normal" stroke-linejoin="bevel" font-size="35.2778">
    <path vector-effect="none" d="M0,0 L-35,-5.83333 L-35,5.83333 L0,0" fill-rule="evenodd"/>
   </g>
   <g fill="#000000" fill-opacity="1" transform="matrix(1,0,0,1,1023.16,912.851)" stroke="#000000" stroke-width="3.5" font-weight="400" font-family="Ubuntu" stroke-linecap="round" stroke-opacity="1" font-style="normal" stroke-linejoin="bevel" font-size="35.2778">
    <path vector-effect="none" d="M0,0 L35,5.83333 L35,-5.83333 L0,0" fill-rule="evenodd"/>
   </g>
   <g fill="#ffffff" fill-opacity="1" transform="matrix(1,0,0,1,833.305,1109.76)" stroke="none" font-weight="400" font-family="Ubuntu" font-style="normal" font-size="35.2778">
    <path vector-effect="non-scaling-stroke" d="M189.858,136.255 L189.858,121.821 L-158.038,-162.235 L-189.858,-136.255 L-189.858,-121.821 L158.038,162.235 L189.858,136.255" fill-rule="evenodd"/>
   </g>
   <g fill="#ffffff" fill-opacity="1" transform="matrix(1,0,0,1,833.305,1109.76)" stroke="none" font-weight="400" font-family="Ubuntu" font-style="normal" font-size="35.2778">
    <path vector-effect="non-scaling-stroke" d="M-158.038,-147.802 L189.858,136.255 L158.038,162.235 L-189.858,-121.821 L-158.038,-147.802" fill-rule="evenodd"/>
   </g>
   <g fill="#ffffff" fill-opacity="1" transform="matrix(1,0,0,1,833.305,1109.76)" stroke="none" font-weight="400" font-family="Ubuntu" font-style="normal" font-size="35.2778">
    <path vector-effect="non-scaling-stroke" d="M-158.038,-147.802 L189.858,136.255 L189.858,121.821 L-158.038,-162.235 L-158.038,-147.802" fill-rule="evenodd"/>
   </g>
   <g fill="#ffffff" fill-opacity="1" transform="matrix(1,0,0,1,833.305,1109.76)" stroke="none" font-weight="400" font-family="Ubuntu" font-style="normal" font-size="35.2778">
    <path vector-effect="non-scaling-stroke" d="M-158.038,-147.802 L-158.038,-162.235 L-189.858,-136.255 L-189.858,-121.821 L-158.038,-147.802" fill-rule="evenodd"/>
   </g>
   <g fill="none" transform="matrix(1,0,0,1,833.305,1109.76)" stroke="#000000" stroke-width="1" font-weight="400" font-family="Ubuntu" stroke-linecap="round" stroke-opacity="1" font-style="normal" stroke-linejoin="bevel" font-size="35.2778">
    <path vector-effect="non-scaling-stroke" d="M-158.038,-147.802 L189.858,136.255" fill-rule="evenodd"/>
   </g>
   <g fill="none" transform="matrix(1,0,0,1,833.305,1109.76)" stroke="#000000" stroke-width="1" font-weight="400" font-family="Ubuntu" stroke-linecap="round" stroke-opacity="1" font-style="normal" stroke-linejoin="bevel" font-size="35.2778">
    <path vector-effect="non-scaling-stroke" d="M189.858,136.255 L189.858,121.821" fill-rule="evenodd"/>
   </g>
   <g fill="none" transform="matrix(1,0,0,1,833.305,1109.76)" stroke="#000000" stroke-width="1" font-weight="400" font-family="Ubuntu" stroke-linecap="round" stroke-opacity="1" font-style="normal" stroke-linejoin="bevel" font-size="35.2778">
    <path vector-effect="non-scaling-stroke" d="M-158.038,-162.235 L189.858,121.821" fill-rule="evenodd"/>
   </g>
   <g fill="none" transform="matrix(1,0,0,1,833.305,1109.76)" stroke="#000000" stroke-width="1" font-weight="400" font-family="Ubuntu" stroke-linecap="round" stroke-opacity="1" font-style="normal" stroke-linejoin="bevel" font-size="35.2778">
    <path vector-effect="non-scaling-stroke" d="M-158.038,-147.802 L-158.038,-162.235" fill-rule="evenodd"/>
   </g>
   <g fill="none" transform="matrix(1,0,0,1,833.305,1109.76)" stroke="#000000" stroke-width="1" font-weight="400" font-family="Ubuntu" stroke-linecap="round" stroke-opacity="1" font-style="normal" stroke-linejoin="bevel" font-size="35.2778">
    <path vector-effect="non-scaling-stroke" d="M-189.858,-121.821 L158.038,162.235" fill-rule="evenodd"/>
   </g>
   <g fill="none" transform="matrix(1,0,0,1,833.305,1109.76)" stroke="#000000" stroke-width="1" font-weight="400" font-family="Ubuntu" stroke-linecap="round" stroke-opacity="1" font-style="normal" stroke-linejoin="bevel" font-size="35.2778">
    <path vector-effect="non-scaling-stroke" d="M-189.858,-121.821 L-189.858,-136.255" fill-rule="evenodd"/>
   </g>
   <g fill="none" transform="matrix(1,0,0,1,833.305,1109.76)" stroke="#000000" stroke-width="1" font-weight="400" font-family="Ubuntu" stroke-linecap="round" stroke-opacity="1" font-style="normal" stroke-linejoin="bevel" font-size="35.2778">
    <path vector-effect="non-scaling-stroke" d="M-158.038,-147.802 L-189.858,-121.821" fill-rule="evenodd"/>
   </g>
   <g fill="none" transform="matrix(1,0,0,1,833.305,1109.76)" stroke="#000000" stroke-width="1" font-weight="400" font-family="Ubuntu" stroke-linecap="round" stroke-opacity="1" font-style="normal" stroke-linejoin="bevel" font-size="35.2778">
    <path vector-effect="non-scaling-stroke" d="M189.858,136.255 L158.038,162.235" fill-rule="evenodd"/>
   </g>
   <g fill="none" transform="matrix(1,0,0,1,833.305,1109.76)" stroke="#000000" stroke-width="1" font-weight="400" font-family="Ubuntu" stroke-linecap="round" stroke-opacity="1" font-style="normal" stroke-linejoin="bevel" font-size="35.2778">
    <path vector-effect="non-scaling-stroke" d="M-158.038,-162.235 L-189.858,-136.255" fill-rule="evenodd"/>
   </g>
   <g fill="none" transform="matrix(0.774597,0.632456,-0.632456,0.774597,680.741,1171.25)" stroke="#000000" stroke-width="1" font-weight="400" font-family="Ubuntu" stroke-linecap="square" stroke-opacity="1" font-style="normal" stroke-linejoin="bevel" font-size="35.2778">
    <text fill="#000000" fill-opacity="1" xml:space="preserve" stroke="none" x="4" font-weight="400" font-family="osifont" y="93" font-style="normal" font-size="67">449,13</text>
   </g>
   <g fill="none" transform="matrix(1,0,0,1,833.305,1109.76)" stroke="#000000" stroke-width="3.5" font-weight="400" font-family="Ubuntu" stroke-linecap="round" stroke-opacity="1" font-style="normal" stroke-linejoin="bevel" font-size="35.2778">
    <path vector-effect="none" d="M-336.37,57.619 L11.5263,341.675 M158.038,162.235 L-6.18248,363.364 M-189.858,-121.821 L-354.079,79.3077" fill-rule="evenodd"/>
   </g>
   <g fill="#000000" fill-opacity="1" transform="matrix(1,0,0,1,844.831,1451.44)" stroke="#000000" stroke-width="3.5" font-weight="400" font-family="Ubuntu" stroke-linecap="round" stroke-opacity="1" font-style="normal" stroke-linejoin="bevel" font-size="35.2778">
    <path vector-effect="none" d="M0,0 L-23.4216,-26.6544 L-30.8002,-17.6175 L0,0" fill-rule="evenodd"/>
   </g>
   <g fill="#000000" fill-opacity="1" transform="matrix(1,0,0,1,496.934,1167.38)" stroke="#000000" stroke-width="3.5" font-weight="400" font-family="Ubuntu" stroke-linecap="round" stroke-opacity="1" font-style="normal" stroke-linejoin="bevel" font-size="35.2778">
    <path vector-effect="none" d="M0,0 L23.4216,26.6544 L30.8002,17.6175 L0,0" fill-rule="evenodd"/>
   </g>
   <g fill="none" transform="matrix(1,0,0,1,917.145,1363.74)" stroke="#000000" stroke-width="1" font-weight="400" font-family="Ubuntu" stroke-linecap="square" stroke-opacity="1" font-style="normal" stroke-linejoin="bevel" font-size="35.2778">
    <text fill="#000000" fill-opacity="1" xml:space="preserve" stroke="none" x="4" font-weight="400" font-family="osifont" y="93" font-style="normal" font-size="67">31,82</text>
   </g>
   <g fill="none" transform="matrix(1,0,0,1,833.305,1109.76)" stroke="#000000" stroke-width="3.5" font-weight="400" font-family="Ubuntu" stroke-linecap="round" stroke-opacity="1" font-style="normal" stroke-linejoin="bevel" font-size="35.2778">
    <path vector-effect="none" d="M259.858,367.233 L69.7036,367.233 M158.038,162.235 L158.038,395.233 M189.858,136.255 L189.858,395.233" fill-rule="evenodd"/>
   </g>
   <g fill="#000000" fill-opacity="1" transform="matrix(1,0,0,1,991.343,1476.99)" stroke="#000000" stroke-width="3.5" font-weight="400" font-family="Ubuntu" stroke-linecap="round" stroke-opacity="1" font-style="normal" stroke-linejoin="bevel" font-size="35.2778">
    <path vector-effect="none" d="M0,0 L-35,-5.83333 L-35,5.83333 L0,0" fill-rule="evenodd"/>
   </g>
   <g fill="#000000" fill-opacity="1" transform="matrix(1,0,0,1,1023.16,1476.99)" stroke="#000000" stroke-width="3.5" font-weight="400" font-family="Ubuntu" stroke-linecap="round" stroke-opacity="1" font-style="normal" stroke-linejoin="bevel" font-size="35.2778">
    <path vector-effect="none" d="M0,0 L35,5.83333 L35,-5.83333 L0,0" fill-rule="evenodd"/>
   </g>
   <g fill="#ffffff" fill-opacity="1" transform="matrix(1,0,0,1,1335.4,677.704)" stroke="none" font-weight="400" font-family="Ubuntu" font-style="normal" font-size="35.2778">
    <path vector-effect="non-scaling-stroke" d="M-147.802,-119.821 L-121.821,-101.45 L162.235,99.4085 L147.802,119.821 L-136.255,-81.0373 L-162.235,-99.4085 L-147.802,-119.821" fill-rule="evenodd"/>
   </g>
   <g fill="#ffffff" fill-opacity="1" transform="matrix(1,0,0,1,1335.4,677.704)" stroke="none" font-weight="400" font-family="Ubuntu" font-style="normal" font-size="35.2778">
    <path vector-effect="non-scaling-stroke" d="M-121.821,-101.45 L162.235,99.4085 L147.802,119.821 L-136.255,-81.0373 L-121.821,-101.45" fill-rule="evenodd"/>
   </g>
   <g fill="#ffffff" fill-opacity="1" transform="matrix(1,0,0,1,1335.4,677.704)" stroke="none" font-weight="400" font-family="Ubuntu" font-style="normal" font-size="35.2778">
    <path vector-effect="non-scaling-stroke" d="M-147.802,-119.821 L-121.821,-101.45 L-136.255,-81.0373 L-162.235,-99.4085 L-147.802,-119.821" fill-rule="evenodd"/>
   </g>
   <g fill="none" transform="matrix(1,0,0,1,1335.4,677.704)" stroke="#000000" stroke-width="1" font-weight="400" font-family="Ubuntu" stroke-linecap="round" stroke-opacity="1" font-style="normal" stroke-linejoin="bevel" font-size="35.2778">
    <path vector-effect="non-scaling-stroke" d="M-147.802,-119.821 L-162.235,-99.4085" fill-rule="evenodd"/>
   </g>
   <g fill="none" transform="matrix(1,0,0,1,1335.4,677.704)" stroke="#000000" stroke-width="1" font-weight="400" font-family="Ubuntu" stroke-linecap="round" stroke-opacity="1" font-style="normal" stroke-linejoin="bevel" font-size="35.2778">
    <path vector-effect="non-scaling-stroke" d="M-121.821,-101.45 L162.235,99.4085" fill-rule="evenodd"/>
   </g>
   <g fill="none" transform="matrix(1,0,0,1,1335.4,677.704)" stroke="#000000" stroke-width="1" font-weight="400" font-family="Ubuntu" stroke-linecap="round" stroke-opacity="1" font-style="normal" stroke-linejoin="bevel" font-size="35.2778">
    <path vector-effect="non-scaling-stroke" d="M162.235,99.4085 L147.802,119.821" fill-rule="evenodd"/>
   </g>
   <g fill="none" transform="matrix(1,0,0,1,1335.4,677.704)" stroke="#000000" stroke-width="1" font-weight="400" font-family="Ubuntu" stroke-linecap="round" stroke-opacity="1" font-style="normal" stroke-linejoin="bevel" font-size="35.2778">
    <path vector-effect="non-scaling-stroke" d="M-136.255,-81.0373 L147.802,119.821" fill-rule="evenodd"/>
   </g>
   <g fill="none" transform="matrix(1,0,0,1,1335.4,677.704)" stroke="#000000" stroke-width="1" font-weight="400" font-family="Ubuntu" stroke-linecap="round" stroke-opacity="1" font-style="normal" stroke-linejoin="bevel" font-size="35.2778">
    <path vector-effect="non-scaling-stroke" d="M-121.821,-101.45 L-136.255,-81.0373" fill-rule="evenodd"/>
   </g>
   <g fill="none" transform="matrix(1,0,0,1,1335.4,677.704)" stroke="#000000" stroke-width="1" font-weight="400" font-family="Ubuntu" stroke-linecap="round" stroke-opacity="1" font-style="normal" stroke-linejoin="bevel" font-size="35.2778">
    <path vector-effect="non-scaling-stroke" d="M-147.802,-119.821 L-121.821,-101.45" fill-rule="evenodd"/>
   </g>
   <g fill="none" transform="matrix(1,0,0,1,1335.4,677.704)" stroke="#000000" stroke-width="1" font-weight="400" font-family="Ubuntu" stroke-linecap="round" stroke-opacity="1" font-style="normal" stroke-linejoin="bevel" font-size="35.2778">
    <path vector-effect="non-scaling-stroke" d="M-162.235,-99.4085 L-136.255,-81.0373" fill-rule="evenodd"/>
   </g>
   <g fill="none" transform="matrix(0.816497,0.57735,-0.57735,0.816497,1333.39,266.176)" stroke="#000000" stroke-width="1" font-weight="400" font-family="Ubuntu" stroke-linecap="square" stroke-opacity="1" font-style="normal" stroke-linejoin="bevel" font-size="35.2778">
    <text fill="#000000" fill-opacity="1" xml:space="preserve" stroke="none" x="4" font-weight="400" font-family="osifont" y="93" font-style="normal" font-size="67">347,9</text>
   </g>
   <g fill="none" transform="matrix(1,0,0,1,1335.4,677.704)" stroke="#000000" stroke-width="3.5" font-weight="400" font-family="Ubuntu" stroke-linecap="round" stroke-opacity="1" font-style="normal" stroke-linejoin="bevel" font-size="35.2778">
    <path vector-effect="none" d="M-78.4429,-326.874 L340.116,-30.9088 M162.235,99.4085 L299.127,-94.1852 M-121.821,-101.45 L15.0705,-295.043" fill-rule="evenodd"/>
   </g>
   <g fill="#000000" fill-opacity="1" transform="matrix(1,0,0,1,1618.36,606.381)" stroke="#000000" stroke-width="3.5" font-weight="400" font-family="Ubuntu" stroke-linecap="round" stroke-opacity="1" font-style="normal" stroke-linejoin="bevel" font-size="35.2778">
    <path vector-effect="none" d="M0,0 L25.2095,24.9702 L31.9453,15.4444 L0,0" fill-rule="evenodd"/>
   </g>
   <g fill="#000000" fill-opacity="1" transform="matrix(1,0,0,1,1334.3,405.522)" stroke="#000000" stroke-width="3.5" font-weight="400" font-family="Ubuntu" stroke-linecap="round" stroke-opacity="1" font-style="normal" stroke-linejoin="bevel" font-size="35.2778">
    <path vector-effect="none" d="M0,0 L-25.2095,-24.9702 L-31.9453,-15.4444 L0,0" fill-rule="evenodd"/>
   </g>
  </g>
 </g>
</svg>
